%TF.GenerationSoftware,KiCad,Pcbnew,(6.0.5)*%
%TF.CreationDate,2022-05-19T09:16:10-04:00*%
%TF.ProjectId,OneMoreThermistor,4f6e654d-6f72-4655-9468-65726d697374,rev?*%
%TF.SameCoordinates,Original*%
%TF.FileFunction,Soldermask,Top*%
%TF.FilePolarity,Negative*%
%FSLAX46Y46*%
G04 Gerber Fmt 4.6, Leading zero omitted, Abs format (unit mm)*
G04 Created by KiCad (PCBNEW (6.0.5)) date 2022-05-19 09:16:10*
%MOMM*%
%LPD*%
G01*
G04 APERTURE LIST*
G04 Aperture macros list*
%AMRoundRect*
0 Rectangle with rounded corners*
0 $1 Rounding radius*
0 $2 $3 $4 $5 $6 $7 $8 $9 X,Y pos of 4 corners*
0 Add a 4 corners polygon primitive as box body*
4,1,4,$2,$3,$4,$5,$6,$7,$8,$9,$2,$3,0*
0 Add four circle primitives for the rounded corners*
1,1,$1+$1,$2,$3*
1,1,$1+$1,$4,$5*
1,1,$1+$1,$6,$7*
1,1,$1+$1,$8,$9*
0 Add four rect primitives between the rounded corners*
20,1,$1+$1,$2,$3,$4,$5,0*
20,1,$1+$1,$4,$5,$6,$7,0*
20,1,$1+$1,$6,$7,$8,$9,0*
20,1,$1+$1,$8,$9,$2,$3,0*%
G04 Aperture macros list end*
%ADD10RoundRect,0.250000X0.600000X0.750000X-0.600000X0.750000X-0.600000X-0.750000X0.600000X-0.750000X0*%
%ADD11O,1.700000X2.000000*%
%ADD12RoundRect,0.250000X-0.262500X-0.450000X0.262500X-0.450000X0.262500X0.450000X-0.262500X0.450000X0*%
%ADD13RoundRect,0.250000X-0.250000X-0.475000X0.250000X-0.475000X0.250000X0.475000X-0.250000X0.475000X0*%
%ADD14R,1.700000X1.700000*%
%ADD15O,1.700000X1.700000*%
%ADD16RoundRect,0.250000X0.262500X0.450000X-0.262500X0.450000X-0.262500X-0.450000X0.262500X-0.450000X0*%
%ADD17R,0.650000X0.400000*%
G04 APERTURE END LIST*
D10*
%TO.C,J1*%
X102997000Y-83820000D03*
D11*
X100497000Y-83820000D03*
%TD*%
D12*
%TO.C,R4*%
X91901000Y-75057000D03*
X93726000Y-75057000D03*
%TD*%
D13*
%TO.C,C2*%
X92964000Y-59055000D03*
X94864000Y-59055000D03*
%TD*%
D14*
%TO.C,J3*%
X104140000Y-59070000D03*
D15*
X104140000Y-61610000D03*
X104140000Y-64150000D03*
X104140000Y-66690000D03*
X104140000Y-69230000D03*
X104140000Y-71770000D03*
X104140000Y-74310000D03*
%TD*%
D16*
%TO.C,R1*%
X101012000Y-75057000D03*
X99187000Y-75057000D03*
%TD*%
D13*
%TO.C,C1*%
X98430000Y-59055000D03*
X100330000Y-59055000D03*
%TD*%
D12*
%TO.C,R2*%
X98909500Y-71374000D03*
X100734500Y-71374000D03*
%TD*%
D10*
%TO.C,J4*%
X92329000Y-83837000D03*
D11*
X89829000Y-83837000D03*
%TD*%
D16*
%TO.C,R6*%
X94789000Y-61722000D03*
X92964000Y-61722000D03*
%TD*%
D14*
%TO.C,J2*%
X88900000Y-59070000D03*
D15*
X88900000Y-61610000D03*
X88900000Y-64150000D03*
X88900000Y-66690000D03*
X88900000Y-69230000D03*
X88900000Y-71770000D03*
X88900000Y-74310000D03*
%TD*%
D12*
%TO.C,R5*%
X91901000Y-71755000D03*
X93726000Y-71755000D03*
%TD*%
D17*
%TO.C,D1*%
X95951000Y-65644000D03*
X95951000Y-66294000D03*
X95951000Y-66944000D03*
X97851000Y-66944000D03*
X97851000Y-66294000D03*
X97851000Y-65644000D03*
%TD*%
D16*
%TO.C,R3*%
X100250000Y-61849000D03*
X98425000Y-61849000D03*
%TD*%
M02*
