%TF.GenerationSoftware,KiCad,Pcbnew,(6.0.5)*%
%TF.CreationDate,2022-05-19T09:16:10-04:00*%
%TF.ProjectId,OneMoreThermistor,4f6e654d-6f72-4655-9468-65726d697374,rev?*%
%TF.SameCoordinates,Original*%
%TF.FileFunction,Legend,Top*%
%TF.FilePolarity,Positive*%
%FSLAX46Y46*%
G04 Gerber Fmt 4.6, Leading zero omitted, Abs format (unit mm)*
G04 Created by KiCad (PCBNEW (6.0.5)) date 2022-05-19 09:16:10*
%MOMM*%
%LPD*%
G01*
G04 APERTURE LIST*
G04 Aperture macros list*
%AMRoundRect*
0 Rectangle with rounded corners*
0 $1 Rounding radius*
0 $2 $3 $4 $5 $6 $7 $8 $9 X,Y pos of 4 corners*
0 Add a 4 corners polygon primitive as box body*
4,1,4,$2,$3,$4,$5,$6,$7,$8,$9,$2,$3,0*
0 Add four circle primitives for the rounded corners*
1,1,$1+$1,$2,$3*
1,1,$1+$1,$4,$5*
1,1,$1+$1,$6,$7*
1,1,$1+$1,$8,$9*
0 Add four rect primitives between the rounded corners*
20,1,$1+$1,$2,$3,$4,$5,0*
20,1,$1+$1,$4,$5,$6,$7,0*
20,1,$1+$1,$6,$7,$8,$9,0*
20,1,$1+$1,$8,$9,$2,$3,0*%
G04 Aperture macros list end*
%ADD10C,0.150000*%
%ADD11C,0.120000*%
%ADD12RoundRect,0.250000X0.600000X0.750000X-0.600000X0.750000X-0.600000X-0.750000X0.600000X-0.750000X0*%
%ADD13O,1.700000X2.000000*%
%ADD14RoundRect,0.250000X-0.262500X-0.450000X0.262500X-0.450000X0.262500X0.450000X-0.262500X0.450000X0*%
%ADD15RoundRect,0.250000X-0.250000X-0.475000X0.250000X-0.475000X0.250000X0.475000X-0.250000X0.475000X0*%
%ADD16R,1.700000X1.700000*%
%ADD17O,1.700000X1.700000*%
%ADD18RoundRect,0.250000X0.262500X0.450000X-0.262500X0.450000X-0.262500X-0.450000X0.262500X-0.450000X0*%
%ADD19R,0.650000X0.400000*%
G04 APERTURE END LIST*
D10*
%TO.C,J1*%
X101413666Y-86822380D02*
X101413666Y-87536666D01*
X101366047Y-87679523D01*
X101270809Y-87774761D01*
X101127952Y-87822380D01*
X101032714Y-87822380D01*
X102413666Y-87822380D02*
X101842238Y-87822380D01*
X102127952Y-87822380D02*
X102127952Y-86822380D01*
X102032714Y-86965238D01*
X101937476Y-87060476D01*
X101842238Y-87108095D01*
%TO.C,R4*%
X92646833Y-73859380D02*
X92313500Y-73383190D01*
X92075404Y-73859380D02*
X92075404Y-72859380D01*
X92456357Y-72859380D01*
X92551595Y-72907000D01*
X92599214Y-72954619D01*
X92646833Y-73049857D01*
X92646833Y-73192714D01*
X92599214Y-73287952D01*
X92551595Y-73335571D01*
X92456357Y-73383190D01*
X92075404Y-73383190D01*
X93503976Y-73192714D02*
X93503976Y-73859380D01*
X93265880Y-72811761D02*
X93027785Y-73526047D01*
X93646833Y-73526047D01*
%TO.C,C2*%
X93747333Y-57732142D02*
X93699714Y-57779761D01*
X93556857Y-57827380D01*
X93461619Y-57827380D01*
X93318761Y-57779761D01*
X93223523Y-57684523D01*
X93175904Y-57589285D01*
X93128285Y-57398809D01*
X93128285Y-57255952D01*
X93175904Y-57065476D01*
X93223523Y-56970238D01*
X93318761Y-56875000D01*
X93461619Y-56827380D01*
X93556857Y-56827380D01*
X93699714Y-56875000D01*
X93747333Y-56922619D01*
X94128285Y-56922619D02*
X94175904Y-56875000D01*
X94271142Y-56827380D01*
X94509238Y-56827380D01*
X94604476Y-56875000D01*
X94652095Y-56922619D01*
X94699714Y-57017857D01*
X94699714Y-57113095D01*
X94652095Y-57255952D01*
X94080666Y-57827380D01*
X94699714Y-57827380D01*
%TO.C,J3*%
X103806666Y-76287380D02*
X103806666Y-77001666D01*
X103759047Y-77144523D01*
X103663809Y-77239761D01*
X103520952Y-77287380D01*
X103425714Y-77287380D01*
X104187619Y-76287380D02*
X104806666Y-76287380D01*
X104473333Y-76668333D01*
X104616190Y-76668333D01*
X104711428Y-76715952D01*
X104759047Y-76763571D01*
X104806666Y-76858809D01*
X104806666Y-77096904D01*
X104759047Y-77192142D01*
X104711428Y-77239761D01*
X104616190Y-77287380D01*
X104330476Y-77287380D01*
X104235238Y-77239761D01*
X104187619Y-77192142D01*
%TO.C,R1*%
X99932833Y-77159380D02*
X99599500Y-76683190D01*
X99361404Y-77159380D02*
X99361404Y-76159380D01*
X99742357Y-76159380D01*
X99837595Y-76207000D01*
X99885214Y-76254619D01*
X99932833Y-76349857D01*
X99932833Y-76492714D01*
X99885214Y-76587952D01*
X99837595Y-76635571D01*
X99742357Y-76683190D01*
X99361404Y-76683190D01*
X100885214Y-77159380D02*
X100313785Y-77159380D01*
X100599500Y-77159380D02*
X100599500Y-76159380D01*
X100504261Y-76302238D01*
X100409023Y-76397476D01*
X100313785Y-76445095D01*
%TO.C,C1*%
X99213333Y-57732142D02*
X99165714Y-57779761D01*
X99022857Y-57827380D01*
X98927619Y-57827380D01*
X98784761Y-57779761D01*
X98689523Y-57684523D01*
X98641904Y-57589285D01*
X98594285Y-57398809D01*
X98594285Y-57255952D01*
X98641904Y-57065476D01*
X98689523Y-56970238D01*
X98784761Y-56875000D01*
X98927619Y-56827380D01*
X99022857Y-56827380D01*
X99165714Y-56875000D01*
X99213333Y-56922619D01*
X100165714Y-57827380D02*
X99594285Y-57827380D01*
X99880000Y-57827380D02*
X99880000Y-56827380D01*
X99784761Y-56970238D01*
X99689523Y-57065476D01*
X99594285Y-57113095D01*
%TO.C,R2*%
X99655333Y-70176380D02*
X99322000Y-69700190D01*
X99083904Y-70176380D02*
X99083904Y-69176380D01*
X99464857Y-69176380D01*
X99560095Y-69224000D01*
X99607714Y-69271619D01*
X99655333Y-69366857D01*
X99655333Y-69509714D01*
X99607714Y-69604952D01*
X99560095Y-69652571D01*
X99464857Y-69700190D01*
X99083904Y-69700190D01*
X100036285Y-69271619D02*
X100083904Y-69224000D01*
X100179142Y-69176380D01*
X100417238Y-69176380D01*
X100512476Y-69224000D01*
X100560095Y-69271619D01*
X100607714Y-69366857D01*
X100607714Y-69462095D01*
X100560095Y-69604952D01*
X99988666Y-70176380D01*
X100607714Y-70176380D01*
%TO.C,J4*%
X90745666Y-86839380D02*
X90745666Y-87553666D01*
X90698047Y-87696523D01*
X90602809Y-87791761D01*
X90459952Y-87839380D01*
X90364714Y-87839380D01*
X91650428Y-87172714D02*
X91650428Y-87839380D01*
X91412333Y-86791761D02*
X91174238Y-87506047D01*
X91793285Y-87506047D01*
%TO.C,R6*%
X93709833Y-63824380D02*
X93376500Y-63348190D01*
X93138404Y-63824380D02*
X93138404Y-62824380D01*
X93519357Y-62824380D01*
X93614595Y-62872000D01*
X93662214Y-62919619D01*
X93709833Y-63014857D01*
X93709833Y-63157714D01*
X93662214Y-63252952D01*
X93614595Y-63300571D01*
X93519357Y-63348190D01*
X93138404Y-63348190D01*
X94566976Y-62824380D02*
X94376500Y-62824380D01*
X94281261Y-62872000D01*
X94233642Y-62919619D01*
X94138404Y-63062476D01*
X94090785Y-63252952D01*
X94090785Y-63633904D01*
X94138404Y-63729142D01*
X94186023Y-63776761D01*
X94281261Y-63824380D01*
X94471738Y-63824380D01*
X94566976Y-63776761D01*
X94614595Y-63729142D01*
X94662214Y-63633904D01*
X94662214Y-63395809D01*
X94614595Y-63300571D01*
X94566976Y-63252952D01*
X94471738Y-63205333D01*
X94281261Y-63205333D01*
X94186023Y-63252952D01*
X94138404Y-63300571D01*
X94090785Y-63395809D01*
%TO.C,J2*%
X88566666Y-76414380D02*
X88566666Y-77128666D01*
X88519047Y-77271523D01*
X88423809Y-77366761D01*
X88280952Y-77414380D01*
X88185714Y-77414380D01*
X88995238Y-76509619D02*
X89042857Y-76462000D01*
X89138095Y-76414380D01*
X89376190Y-76414380D01*
X89471428Y-76462000D01*
X89519047Y-76509619D01*
X89566666Y-76604857D01*
X89566666Y-76700095D01*
X89519047Y-76842952D01*
X88947619Y-77414380D01*
X89566666Y-77414380D01*
%TO.C,R5*%
X92646833Y-70557380D02*
X92313500Y-70081190D01*
X92075404Y-70557380D02*
X92075404Y-69557380D01*
X92456357Y-69557380D01*
X92551595Y-69605000D01*
X92599214Y-69652619D01*
X92646833Y-69747857D01*
X92646833Y-69890714D01*
X92599214Y-69985952D01*
X92551595Y-70033571D01*
X92456357Y-70081190D01*
X92075404Y-70081190D01*
X93551595Y-69557380D02*
X93075404Y-69557380D01*
X93027785Y-70033571D01*
X93075404Y-69985952D01*
X93170642Y-69938333D01*
X93408738Y-69938333D01*
X93503976Y-69985952D01*
X93551595Y-70033571D01*
X93599214Y-70128809D01*
X93599214Y-70366904D01*
X93551595Y-70462142D01*
X93503976Y-70509761D01*
X93408738Y-70557380D01*
X93170642Y-70557380D01*
X93075404Y-70509761D01*
X93027785Y-70462142D01*
%TO.C,D1*%
X93495904Y-66746380D02*
X93495904Y-65746380D01*
X93734000Y-65746380D01*
X93876857Y-65794000D01*
X93972095Y-65889238D01*
X94019714Y-65984476D01*
X94067333Y-66174952D01*
X94067333Y-66317809D01*
X94019714Y-66508285D01*
X93972095Y-66603523D01*
X93876857Y-66698761D01*
X93734000Y-66746380D01*
X93495904Y-66746380D01*
X95019714Y-66746380D02*
X94448285Y-66746380D01*
X94734000Y-66746380D02*
X94734000Y-65746380D01*
X94638761Y-65889238D01*
X94543523Y-65984476D01*
X94448285Y-66032095D01*
%TO.C,R3*%
X99170833Y-63951380D02*
X98837500Y-63475190D01*
X98599404Y-63951380D02*
X98599404Y-62951380D01*
X98980357Y-62951380D01*
X99075595Y-62999000D01*
X99123214Y-63046619D01*
X99170833Y-63141857D01*
X99170833Y-63284714D01*
X99123214Y-63379952D01*
X99075595Y-63427571D01*
X98980357Y-63475190D01*
X98599404Y-63475190D01*
X99504166Y-62951380D02*
X100123214Y-62951380D01*
X99789880Y-63332333D01*
X99932738Y-63332333D01*
X100027976Y-63379952D01*
X100075595Y-63427571D01*
X100123214Y-63522809D01*
X100123214Y-63760904D01*
X100075595Y-63856142D01*
X100027976Y-63903761D01*
X99932738Y-63951380D01*
X99647023Y-63951380D01*
X99551785Y-63903761D01*
X99504166Y-63856142D01*
D11*
%TO.C,J1*%
X98697000Y-84020000D02*
X98697000Y-81070000D01*
X97937000Y-80310000D02*
X97937000Y-86280000D01*
X97947000Y-85520000D02*
X97947000Y-86270000D01*
X99747000Y-85520000D02*
X97947000Y-85520000D01*
X103747000Y-86270000D02*
X105547000Y-86270000D01*
X105547000Y-84020000D02*
X104797000Y-84020000D01*
X99747000Y-86270000D02*
X99747000Y-85520000D01*
X97947000Y-84020000D02*
X98697000Y-84020000D01*
X105557000Y-86280000D02*
X105557000Y-80310000D01*
X104797000Y-84020000D02*
X104797000Y-81070000D01*
X102247000Y-85520000D02*
X101247000Y-85520000D01*
X103747000Y-85520000D02*
X103747000Y-86270000D01*
X104597000Y-86570000D02*
X105847000Y-86570000D01*
X104797000Y-81070000D02*
X101747000Y-81070000D01*
X97937000Y-86280000D02*
X105557000Y-86280000D01*
X105847000Y-86570000D02*
X105847000Y-85320000D01*
X101247000Y-86270000D02*
X102247000Y-86270000D01*
X105557000Y-80310000D02*
X97937000Y-80310000D01*
X102247000Y-86270000D02*
X102247000Y-85520000D01*
X105547000Y-86270000D02*
X105547000Y-85520000D01*
X101247000Y-85520000D02*
X101247000Y-86270000D01*
X98697000Y-81070000D02*
X101747000Y-81070000D01*
X105547000Y-85520000D02*
X103747000Y-85520000D01*
X97947000Y-86270000D02*
X99747000Y-86270000D01*
%TO.C,R4*%
X92586436Y-74322000D02*
X93040564Y-74322000D01*
X92586436Y-75792000D02*
X93040564Y-75792000D01*
%TO.C,C2*%
X93652748Y-59790000D02*
X94175252Y-59790000D01*
X93652748Y-58320000D02*
X94175252Y-58320000D01*
%TO.C,J3*%
X102810000Y-60340000D02*
X105470000Y-60340000D01*
X102810000Y-60340000D02*
X102810000Y-75640000D01*
X105470000Y-60340000D02*
X105470000Y-75640000D01*
X102810000Y-57740000D02*
X104140000Y-57740000D01*
X102810000Y-75640000D02*
X105470000Y-75640000D01*
X102810000Y-59070000D02*
X102810000Y-57740000D01*
%TO.C,R1*%
X100326564Y-74322000D02*
X99872436Y-74322000D01*
X100326564Y-75792000D02*
X99872436Y-75792000D01*
%TO.C,C1*%
X99118748Y-59790000D02*
X99641252Y-59790000D01*
X99118748Y-58320000D02*
X99641252Y-58320000D01*
%TO.C,R2*%
X99594936Y-72109000D02*
X100049064Y-72109000D01*
X99594936Y-70639000D02*
X100049064Y-70639000D01*
%TO.C,J4*%
X87269000Y-80327000D02*
X87269000Y-86297000D01*
X94889000Y-86297000D02*
X94889000Y-80327000D01*
X93929000Y-86587000D02*
X95179000Y-86587000D01*
X91579000Y-85537000D02*
X90579000Y-85537000D01*
X87279000Y-86287000D02*
X89079000Y-86287000D01*
X93079000Y-85537000D02*
X93079000Y-86287000D01*
X94129000Y-81087000D02*
X91079000Y-81087000D01*
X94129000Y-84037000D02*
X94129000Y-81087000D01*
X93079000Y-86287000D02*
X94879000Y-86287000D01*
X87269000Y-86297000D02*
X94889000Y-86297000D01*
X94879000Y-86287000D02*
X94879000Y-85537000D01*
X90579000Y-85537000D02*
X90579000Y-86287000D01*
X89079000Y-85537000D02*
X87279000Y-85537000D01*
X87279000Y-84037000D02*
X88029000Y-84037000D01*
X88029000Y-84037000D02*
X88029000Y-81087000D01*
X87279000Y-85537000D02*
X87279000Y-86287000D01*
X89079000Y-86287000D02*
X89079000Y-85537000D01*
X95179000Y-86587000D02*
X95179000Y-85337000D01*
X91579000Y-86287000D02*
X91579000Y-85537000D01*
X94879000Y-85537000D02*
X93079000Y-85537000D01*
X94889000Y-80327000D02*
X87269000Y-80327000D01*
X90579000Y-86287000D02*
X91579000Y-86287000D01*
X88029000Y-81087000D02*
X91079000Y-81087000D01*
X94879000Y-84037000D02*
X94129000Y-84037000D01*
%TO.C,R6*%
X94103564Y-62457000D02*
X93649436Y-62457000D01*
X94103564Y-60987000D02*
X93649436Y-60987000D01*
%TO.C,J2*%
X87570000Y-57740000D02*
X88900000Y-57740000D01*
X87570000Y-75640000D02*
X90230000Y-75640000D01*
X87570000Y-60340000D02*
X90230000Y-60340000D01*
X90230000Y-60340000D02*
X90230000Y-75640000D01*
X87570000Y-60340000D02*
X87570000Y-75640000D01*
X87570000Y-59070000D02*
X87570000Y-57740000D01*
%TO.C,R5*%
X92586436Y-71020000D02*
X93040564Y-71020000D01*
X92586436Y-72490000D02*
X93040564Y-72490000D01*
%TO.C,D1*%
X96201000Y-67454000D02*
X97601000Y-67454000D01*
X97601000Y-65134000D02*
X95701000Y-65134000D01*
%TO.C,R3*%
X99564564Y-61114000D02*
X99110436Y-61114000D01*
X99564564Y-62584000D02*
X99110436Y-62584000D01*
%TD*%
%LPC*%
D12*
%TO.C,J1*%
X102997000Y-83820000D03*
D13*
X100497000Y-83820000D03*
%TD*%
D14*
%TO.C,R4*%
X91901000Y-75057000D03*
X93726000Y-75057000D03*
%TD*%
D15*
%TO.C,C2*%
X92964000Y-59055000D03*
X94864000Y-59055000D03*
%TD*%
D16*
%TO.C,J3*%
X104140000Y-59070000D03*
D17*
X104140000Y-61610000D03*
X104140000Y-64150000D03*
X104140000Y-66690000D03*
X104140000Y-69230000D03*
X104140000Y-71770000D03*
X104140000Y-74310000D03*
%TD*%
D18*
%TO.C,R1*%
X101012000Y-75057000D03*
X99187000Y-75057000D03*
%TD*%
D15*
%TO.C,C1*%
X98430000Y-59055000D03*
X100330000Y-59055000D03*
%TD*%
D14*
%TO.C,R2*%
X98909500Y-71374000D03*
X100734500Y-71374000D03*
%TD*%
D12*
%TO.C,J4*%
X92329000Y-83837000D03*
D13*
X89829000Y-83837000D03*
%TD*%
D18*
%TO.C,R6*%
X94789000Y-61722000D03*
X92964000Y-61722000D03*
%TD*%
D16*
%TO.C,J2*%
X88900000Y-59070000D03*
D17*
X88900000Y-61610000D03*
X88900000Y-64150000D03*
X88900000Y-66690000D03*
X88900000Y-69230000D03*
X88900000Y-71770000D03*
X88900000Y-74310000D03*
%TD*%
D14*
%TO.C,R5*%
X91901000Y-71755000D03*
X93726000Y-71755000D03*
%TD*%
D19*
%TO.C,D1*%
X95951000Y-65644000D03*
X95951000Y-66294000D03*
X95951000Y-66944000D03*
X97851000Y-66944000D03*
X97851000Y-66294000D03*
X97851000Y-65644000D03*
%TD*%
D18*
%TO.C,R3*%
X100250000Y-61849000D03*
X98425000Y-61849000D03*
%TD*%
M02*
