%TF.GenerationSoftware,KiCad,Pcbnew,(6.0.5)*%
%TF.CreationDate,2022-05-19T09:16:10-04:00*%
%TF.ProjectId,OneMoreThermistor,4f6e654d-6f72-4655-9468-65726d697374,rev?*%
%TF.SameCoordinates,Original*%
%TF.FileFunction,Copper,L2,Bot*%
%TF.FilePolarity,Positive*%
%FSLAX46Y46*%
G04 Gerber Fmt 4.6, Leading zero omitted, Abs format (unit mm)*
G04 Created by KiCad (PCBNEW (6.0.5)) date 2022-05-19 09:16:10*
%MOMM*%
%LPD*%
G01*
G04 APERTURE LIST*
G04 Aperture macros list*
%AMRoundRect*
0 Rectangle with rounded corners*
0 $1 Rounding radius*
0 $2 $3 $4 $5 $6 $7 $8 $9 X,Y pos of 4 corners*
0 Add a 4 corners polygon primitive as box body*
4,1,4,$2,$3,$4,$5,$6,$7,$8,$9,$2,$3,0*
0 Add four circle primitives for the rounded corners*
1,1,$1+$1,$2,$3*
1,1,$1+$1,$4,$5*
1,1,$1+$1,$6,$7*
1,1,$1+$1,$8,$9*
0 Add four rect primitives between the rounded corners*
20,1,$1+$1,$2,$3,$4,$5,0*
20,1,$1+$1,$4,$5,$6,$7,0*
20,1,$1+$1,$6,$7,$8,$9,0*
20,1,$1+$1,$8,$9,$2,$3,0*%
G04 Aperture macros list end*
%TA.AperFunction,ComponentPad*%
%ADD10RoundRect,0.250000X0.600000X0.750000X-0.600000X0.750000X-0.600000X-0.750000X0.600000X-0.750000X0*%
%TD*%
%TA.AperFunction,ComponentPad*%
%ADD11O,1.700000X2.000000*%
%TD*%
%TA.AperFunction,ComponentPad*%
%ADD12R,1.700000X1.700000*%
%TD*%
%TA.AperFunction,ComponentPad*%
%ADD13O,1.700000X1.700000*%
%TD*%
%TA.AperFunction,ViaPad*%
%ADD14C,0.800000*%
%TD*%
%TA.AperFunction,Conductor*%
%ADD15C,0.250000*%
%TD*%
G04 APERTURE END LIST*
D10*
%TO.P,J1,1,Pin_1*%
%TO.N,GND*%
X102997000Y-83820000D03*
D11*
%TO.P,J1,2,Pin_2*%
%TO.N,Net-(J1-Pad2)*%
X100497000Y-83820000D03*
%TD*%
D12*
%TO.P,J3,1,Pin_1*%
%TO.N,unconnected-(J3-Pad1)*%
X104140000Y-59070000D03*
D13*
%TO.P,J3,2,Pin_2*%
%TO.N,GND*%
X104140000Y-61610000D03*
%TO.P,J3,3,Pin_3*%
%TO.N,+3V3*%
X104140000Y-64150000D03*
%TO.P,J3,4,Pin_4*%
%TO.N,unconnected-(J3-Pad4)*%
X104140000Y-66690000D03*
%TO.P,J3,5,Pin_5*%
%TO.N,unconnected-(J3-Pad5)*%
X104140000Y-69230000D03*
%TO.P,J3,6,Pin_6*%
%TO.N,unconnected-(J3-Pad6)*%
X104140000Y-71770000D03*
%TO.P,J3,7,Pin_7*%
%TO.N,unconnected-(J3-Pad7)*%
X104140000Y-74310000D03*
%TD*%
D10*
%TO.P,J4,1,Pin_1*%
%TO.N,GND*%
X92329000Y-83837000D03*
D11*
%TO.P,J4,2,Pin_2*%
%TO.N,Net-(J4-Pad2)*%
X89829000Y-83837000D03*
%TD*%
D12*
%TO.P,J2,1,Pin_1*%
%TO.N,/T1*%
X88900000Y-59070000D03*
D13*
%TO.P,J2,2,Pin_2*%
%TO.N,/T2*%
X88900000Y-61610000D03*
%TO.P,J2,3,Pin_3*%
%TO.N,unconnected-(J2-Pad3)*%
X88900000Y-64150000D03*
%TO.P,J2,4,Pin_4*%
%TO.N,unconnected-(J2-Pad4)*%
X88900000Y-66690000D03*
%TO.P,J2,5,Pin_5*%
%TO.N,unconnected-(J2-Pad5)*%
X88900000Y-69230000D03*
%TO.P,J2,6,Pin_6*%
%TO.N,unconnected-(J2-Pad6)*%
X88900000Y-71770000D03*
%TO.P,J2,7,Pin_7*%
%TO.N,unconnected-(J2-Pad7)*%
X88900000Y-74310000D03*
%TD*%
D14*
%TO.N,GND*%
X91694000Y-68707000D03*
X96266000Y-63500000D03*
X96647000Y-60706000D03*
X91694000Y-65024000D03*
X96901000Y-78359000D03*
X93599000Y-78359000D03*
X103759000Y-78359000D03*
X100584000Y-64643000D03*
X97790000Y-68707000D03*
%TO.N,+3V3*%
X99314000Y-66294000D03*
X96520000Y-75057000D03*
X94615000Y-66294000D03*
%TD*%
D15*
%TO.N,+3V3*%
X96520000Y-72136000D02*
X96520000Y-75057000D01*
X96520000Y-71770000D02*
X96520000Y-72136000D01*
X101996000Y-66294000D02*
X99314000Y-66294000D01*
X96520000Y-68199000D02*
X94615000Y-66294000D01*
X104140000Y-64150000D02*
X101996000Y-66294000D01*
X96520000Y-72136000D02*
X96520000Y-68199000D01*
X99314000Y-66294000D02*
X94615000Y-66294000D01*
%TD*%
%TA.AperFunction,Conductor*%
%TO.N,GND*%
G36*
X106367621Y-56789502D02*
G01*
X106414114Y-56843158D01*
X106425500Y-56895500D01*
X106425500Y-86995500D01*
X106405498Y-87063621D01*
X106351842Y-87110114D01*
X106299500Y-87121500D01*
X86740500Y-87121500D01*
X86672379Y-87101498D01*
X86625886Y-87047842D01*
X86614500Y-86995500D01*
X86614500Y-84044890D01*
X88470500Y-84044890D01*
X88474426Y-84091156D01*
X88483638Y-84199720D01*
X88485080Y-84216720D01*
X88486418Y-84221875D01*
X88486419Y-84221881D01*
X88539850Y-84427741D01*
X88542999Y-84439872D01*
X88637688Y-84650075D01*
X88766441Y-84841319D01*
X88770120Y-84845176D01*
X88770122Y-84845178D01*
X88807606Y-84884471D01*
X88925576Y-85008135D01*
X89110542Y-85145754D01*
X89115293Y-85148170D01*
X89115297Y-85148172D01*
X89162040Y-85171937D01*
X89316051Y-85250240D01*
X89321145Y-85251822D01*
X89321148Y-85251823D01*
X89476380Y-85300024D01*
X89536227Y-85318607D01*
X89541516Y-85319308D01*
X89759489Y-85348198D01*
X89759494Y-85348198D01*
X89764774Y-85348898D01*
X89770103Y-85348698D01*
X89770105Y-85348698D01*
X89879966Y-85344573D01*
X89995158Y-85340249D01*
X90000468Y-85339135D01*
X90139878Y-85309884D01*
X90220791Y-85292907D01*
X90225750Y-85290949D01*
X90225752Y-85290948D01*
X90430256Y-85210185D01*
X90430258Y-85210184D01*
X90435221Y-85208224D01*
X90460005Y-85193185D01*
X90627757Y-85091390D01*
X90627756Y-85091390D01*
X90632317Y-85088623D01*
X90678934Y-85048171D01*
X90802412Y-84941023D01*
X90802414Y-84941021D01*
X90806445Y-84937523D01*
X90836006Y-84901471D01*
X90894666Y-84861476D01*
X90965636Y-84859545D01*
X91026384Y-84896290D01*
X91040584Y-84915059D01*
X91127063Y-85054807D01*
X91136099Y-85066208D01*
X91250829Y-85180739D01*
X91262240Y-85189751D01*
X91400243Y-85274816D01*
X91413424Y-85280963D01*
X91567710Y-85332138D01*
X91581086Y-85335005D01*
X91675438Y-85344672D01*
X91681854Y-85345000D01*
X92056885Y-85345000D01*
X92072124Y-85340525D01*
X92073329Y-85339135D01*
X92075000Y-85331452D01*
X92075000Y-85326884D01*
X92583000Y-85326884D01*
X92587475Y-85342123D01*
X92588865Y-85343328D01*
X92596548Y-85344999D01*
X92976095Y-85344999D01*
X92982614Y-85344662D01*
X93078206Y-85334743D01*
X93091600Y-85331851D01*
X93245784Y-85280412D01*
X93258962Y-85274239D01*
X93396807Y-85188937D01*
X93408208Y-85179901D01*
X93522739Y-85065171D01*
X93531751Y-85053760D01*
X93616816Y-84915757D01*
X93622963Y-84902576D01*
X93674138Y-84748290D01*
X93677005Y-84734914D01*
X93686672Y-84640562D01*
X93687000Y-84634146D01*
X93687000Y-84109115D01*
X93682525Y-84093876D01*
X93681135Y-84092671D01*
X93673452Y-84091000D01*
X92601115Y-84091000D01*
X92585876Y-84095475D01*
X92584671Y-84096865D01*
X92583000Y-84104548D01*
X92583000Y-85326884D01*
X92075000Y-85326884D01*
X92075000Y-84027890D01*
X99138500Y-84027890D01*
X99142426Y-84074156D01*
X99145918Y-84115308D01*
X99153080Y-84199720D01*
X99154418Y-84204875D01*
X99154419Y-84204881D01*
X99190054Y-84342175D01*
X99210999Y-84422872D01*
X99305688Y-84633075D01*
X99434441Y-84824319D01*
X99438120Y-84828176D01*
X99438122Y-84828178D01*
X99468045Y-84859545D01*
X99593576Y-84991135D01*
X99778542Y-85128754D01*
X99783293Y-85131170D01*
X99783297Y-85131172D01*
X99816734Y-85148172D01*
X99984051Y-85233240D01*
X99989145Y-85234822D01*
X99989148Y-85234823D01*
X100135968Y-85280412D01*
X100204227Y-85301607D01*
X100209516Y-85302308D01*
X100427489Y-85331198D01*
X100427494Y-85331198D01*
X100432774Y-85331898D01*
X100438103Y-85331698D01*
X100438105Y-85331698D01*
X100566332Y-85326884D01*
X100663158Y-85323249D01*
X100668468Y-85322135D01*
X100883572Y-85277002D01*
X100888791Y-85275907D01*
X100893750Y-85273949D01*
X100893752Y-85273948D01*
X101098256Y-85193185D01*
X101098258Y-85193184D01*
X101103221Y-85191224D01*
X101174169Y-85148172D01*
X101295757Y-85074390D01*
X101295756Y-85074390D01*
X101300317Y-85071623D01*
X101377926Y-85004278D01*
X101470412Y-84924023D01*
X101470414Y-84924021D01*
X101474445Y-84920523D01*
X101504006Y-84884471D01*
X101562666Y-84844476D01*
X101633636Y-84842545D01*
X101694384Y-84879290D01*
X101708584Y-84898059D01*
X101795063Y-85037807D01*
X101804099Y-85049208D01*
X101918829Y-85163739D01*
X101930240Y-85172751D01*
X102068243Y-85257816D01*
X102081424Y-85263963D01*
X102235710Y-85315138D01*
X102249086Y-85318005D01*
X102343438Y-85327672D01*
X102349854Y-85328000D01*
X102724885Y-85328000D01*
X102740124Y-85323525D01*
X102741329Y-85322135D01*
X102743000Y-85314452D01*
X102743000Y-85309884D01*
X103251000Y-85309884D01*
X103255475Y-85325123D01*
X103256865Y-85326328D01*
X103264548Y-85327999D01*
X103644095Y-85327999D01*
X103650614Y-85327662D01*
X103746206Y-85317743D01*
X103759600Y-85314851D01*
X103913784Y-85263412D01*
X103926962Y-85257239D01*
X104064807Y-85171937D01*
X104076208Y-85162901D01*
X104190739Y-85048171D01*
X104199751Y-85036760D01*
X104284816Y-84898757D01*
X104290963Y-84885576D01*
X104342138Y-84731290D01*
X104345005Y-84717914D01*
X104354672Y-84623562D01*
X104355000Y-84617146D01*
X104355000Y-84092115D01*
X104350525Y-84076876D01*
X104349135Y-84075671D01*
X104341452Y-84074000D01*
X103269115Y-84074000D01*
X103253876Y-84078475D01*
X103252671Y-84079865D01*
X103251000Y-84087548D01*
X103251000Y-85309884D01*
X102743000Y-85309884D01*
X102743000Y-83547885D01*
X103251000Y-83547885D01*
X103255475Y-83563124D01*
X103256865Y-83564329D01*
X103264548Y-83566000D01*
X104336884Y-83566000D01*
X104352123Y-83561525D01*
X104353328Y-83560135D01*
X104354999Y-83552452D01*
X104354999Y-83022905D01*
X104354662Y-83016386D01*
X104344743Y-82920794D01*
X104341851Y-82907400D01*
X104290412Y-82753216D01*
X104284239Y-82740038D01*
X104198937Y-82602193D01*
X104189901Y-82590792D01*
X104075171Y-82476261D01*
X104063760Y-82467249D01*
X103925757Y-82382184D01*
X103912576Y-82376037D01*
X103758290Y-82324862D01*
X103744914Y-82321995D01*
X103650562Y-82312328D01*
X103644145Y-82312000D01*
X103269115Y-82312000D01*
X103253876Y-82316475D01*
X103252671Y-82317865D01*
X103251000Y-82325548D01*
X103251000Y-83547885D01*
X102743000Y-83547885D01*
X102743000Y-82330116D01*
X102738525Y-82314877D01*
X102737135Y-82313672D01*
X102729452Y-82312001D01*
X102349905Y-82312001D01*
X102343386Y-82312338D01*
X102247794Y-82322257D01*
X102234400Y-82325149D01*
X102080216Y-82376588D01*
X102067038Y-82382761D01*
X101929193Y-82468063D01*
X101917792Y-82477099D01*
X101803261Y-82591829D01*
X101794247Y-82603243D01*
X101708277Y-82742713D01*
X101655505Y-82790207D01*
X101585434Y-82801631D01*
X101520310Y-82773357D01*
X101509847Y-82763570D01*
X101489951Y-82742713D01*
X101400424Y-82648865D01*
X101215458Y-82511246D01*
X101210707Y-82508830D01*
X101210703Y-82508828D01*
X101048141Y-82426178D01*
X101009949Y-82406760D01*
X101004855Y-82405178D01*
X101004852Y-82405177D01*
X100794871Y-82339976D01*
X100789773Y-82338393D01*
X100753240Y-82333551D01*
X100566511Y-82308802D01*
X100566506Y-82308802D01*
X100561226Y-82308102D01*
X100555897Y-82308302D01*
X100555895Y-82308302D01*
X100457368Y-82312001D01*
X100330842Y-82316751D01*
X100325623Y-82317846D01*
X100305849Y-82321995D01*
X100105209Y-82364093D01*
X100100250Y-82366051D01*
X100100248Y-82366052D01*
X99895744Y-82446815D01*
X99895742Y-82446816D01*
X99890779Y-82448776D01*
X99886220Y-82451543D01*
X99886217Y-82451544D01*
X99787832Y-82511246D01*
X99693683Y-82568377D01*
X99689653Y-82571874D01*
X99576893Y-82669722D01*
X99519555Y-82719477D01*
X99516168Y-82723608D01*
X99376760Y-82893627D01*
X99376756Y-82893633D01*
X99373376Y-82897755D01*
X99370737Y-82902391D01*
X99370735Y-82902394D01*
X99350584Y-82937794D01*
X99259325Y-83098114D01*
X99180663Y-83314825D01*
X99179714Y-83320074D01*
X99179713Y-83320077D01*
X99140377Y-83537608D01*
X99140376Y-83537615D01*
X99139639Y-83541692D01*
X99138500Y-83565844D01*
X99138500Y-84027890D01*
X92075000Y-84027890D01*
X92075000Y-83564885D01*
X92583000Y-83564885D01*
X92587475Y-83580124D01*
X92588865Y-83581329D01*
X92596548Y-83583000D01*
X93668884Y-83583000D01*
X93684123Y-83578525D01*
X93685328Y-83577135D01*
X93686999Y-83569452D01*
X93686999Y-83039905D01*
X93686662Y-83033386D01*
X93676743Y-82937794D01*
X93673851Y-82924400D01*
X93622412Y-82770216D01*
X93616239Y-82757038D01*
X93530937Y-82619193D01*
X93521901Y-82607792D01*
X93407171Y-82493261D01*
X93395760Y-82484249D01*
X93257757Y-82399184D01*
X93244576Y-82393037D01*
X93090290Y-82341862D01*
X93076914Y-82338995D01*
X92982562Y-82329328D01*
X92976145Y-82329000D01*
X92601115Y-82329000D01*
X92585876Y-82333475D01*
X92584671Y-82334865D01*
X92583000Y-82342548D01*
X92583000Y-83564885D01*
X92075000Y-83564885D01*
X92075000Y-82347116D01*
X92070525Y-82331877D01*
X92069135Y-82330672D01*
X92061452Y-82329001D01*
X91681905Y-82329001D01*
X91675386Y-82329338D01*
X91579794Y-82339257D01*
X91566400Y-82342149D01*
X91412216Y-82393588D01*
X91399038Y-82399761D01*
X91261193Y-82485063D01*
X91249792Y-82494099D01*
X91135261Y-82608829D01*
X91126247Y-82620243D01*
X91040277Y-82759713D01*
X90987505Y-82807207D01*
X90917434Y-82818631D01*
X90852310Y-82790357D01*
X90841847Y-82780570D01*
X90834967Y-82773357D01*
X90732424Y-82665865D01*
X90547458Y-82528246D01*
X90542707Y-82525830D01*
X90542703Y-82525828D01*
X90429087Y-82468063D01*
X90341949Y-82423760D01*
X90336855Y-82422178D01*
X90336852Y-82422177D01*
X90126871Y-82356976D01*
X90121773Y-82355393D01*
X90116484Y-82354692D01*
X89898511Y-82325802D01*
X89898506Y-82325802D01*
X89893226Y-82325102D01*
X89887897Y-82325302D01*
X89887895Y-82325302D01*
X89789368Y-82329001D01*
X89662842Y-82333751D01*
X89657623Y-82334846D01*
X89624185Y-82341862D01*
X89437209Y-82381093D01*
X89432250Y-82383051D01*
X89432248Y-82383052D01*
X89227744Y-82463815D01*
X89227742Y-82463816D01*
X89222779Y-82465776D01*
X89218220Y-82468543D01*
X89218217Y-82468544D01*
X89119832Y-82528246D01*
X89025683Y-82585377D01*
X89021653Y-82588874D01*
X88871146Y-82719477D01*
X88851555Y-82736477D01*
X88848168Y-82740608D01*
X88708760Y-82910627D01*
X88708756Y-82910633D01*
X88705376Y-82914755D01*
X88702737Y-82919391D01*
X88702735Y-82919394D01*
X88692261Y-82937794D01*
X88591325Y-83115114D01*
X88512663Y-83331825D01*
X88511714Y-83337074D01*
X88511713Y-83337077D01*
X88472377Y-83554608D01*
X88472376Y-83554615D01*
X88471639Y-83558692D01*
X88470500Y-83582844D01*
X88470500Y-84044890D01*
X86614500Y-84044890D01*
X86614500Y-74276695D01*
X87537251Y-74276695D01*
X87537548Y-74281848D01*
X87537548Y-74281851D01*
X87542906Y-74374779D01*
X87550110Y-74499715D01*
X87551247Y-74504761D01*
X87551248Y-74504767D01*
X87571119Y-74592939D01*
X87599222Y-74717639D01*
X87683266Y-74924616D01*
X87799987Y-75115088D01*
X87946250Y-75283938D01*
X88118126Y-75426632D01*
X88311000Y-75539338D01*
X88519692Y-75619030D01*
X88524760Y-75620061D01*
X88524763Y-75620062D01*
X88632017Y-75641883D01*
X88738597Y-75663567D01*
X88743772Y-75663757D01*
X88743774Y-75663757D01*
X88956673Y-75671564D01*
X88956677Y-75671564D01*
X88961837Y-75671753D01*
X88966957Y-75671097D01*
X88966959Y-75671097D01*
X89178288Y-75644025D01*
X89178289Y-75644025D01*
X89183416Y-75643368D01*
X89188366Y-75641883D01*
X89392429Y-75580661D01*
X89392434Y-75580659D01*
X89397384Y-75579174D01*
X89597994Y-75480896D01*
X89779860Y-75351173D01*
X89938096Y-75193489D01*
X89997594Y-75110689D01*
X90065435Y-75016277D01*
X90068453Y-75012077D01*
X90140119Y-74867072D01*
X90165136Y-74816453D01*
X90165137Y-74816451D01*
X90167430Y-74811811D01*
X90232370Y-74598069D01*
X90261529Y-74376590D01*
X90263156Y-74310000D01*
X90244852Y-74087361D01*
X90190431Y-73870702D01*
X90101354Y-73665840D01*
X89980014Y-73478277D01*
X89829670Y-73313051D01*
X89825619Y-73309852D01*
X89825615Y-73309848D01*
X89658414Y-73177800D01*
X89658410Y-73177798D01*
X89654359Y-73174598D01*
X89613053Y-73151796D01*
X89563084Y-73101364D01*
X89548312Y-73031921D01*
X89573428Y-72965516D01*
X89600780Y-72938909D01*
X89644603Y-72907650D01*
X89779860Y-72811173D01*
X89938096Y-72653489D01*
X89997594Y-72570689D01*
X90065435Y-72476277D01*
X90068453Y-72472077D01*
X90167430Y-72271811D01*
X90232370Y-72058069D01*
X90261529Y-71836590D01*
X90263156Y-71770000D01*
X90244852Y-71547361D01*
X90190431Y-71330702D01*
X90101354Y-71125840D01*
X89980014Y-70938277D01*
X89829670Y-70773051D01*
X89825619Y-70769852D01*
X89825615Y-70769848D01*
X89658414Y-70637800D01*
X89658410Y-70637798D01*
X89654359Y-70634598D01*
X89613053Y-70611796D01*
X89563084Y-70561364D01*
X89548312Y-70491921D01*
X89573428Y-70425516D01*
X89600780Y-70398909D01*
X89644603Y-70367650D01*
X89779860Y-70271173D01*
X89938096Y-70113489D01*
X89997594Y-70030689D01*
X90065435Y-69936277D01*
X90068453Y-69932077D01*
X90167430Y-69731811D01*
X90232370Y-69518069D01*
X90261529Y-69296590D01*
X90263156Y-69230000D01*
X90244852Y-69007361D01*
X90190431Y-68790702D01*
X90101354Y-68585840D01*
X90037290Y-68486812D01*
X89982822Y-68402617D01*
X89982820Y-68402614D01*
X89980014Y-68398277D01*
X89829670Y-68233051D01*
X89825619Y-68229852D01*
X89825615Y-68229848D01*
X89658414Y-68097800D01*
X89658410Y-68097798D01*
X89654359Y-68094598D01*
X89613053Y-68071796D01*
X89563084Y-68021364D01*
X89548312Y-67951921D01*
X89573428Y-67885516D01*
X89600780Y-67858909D01*
X89663088Y-67814465D01*
X89779860Y-67731173D01*
X89938096Y-67573489D01*
X89997594Y-67490689D01*
X90065435Y-67396277D01*
X90068453Y-67392077D01*
X90167430Y-67191811D01*
X90232370Y-66978069D01*
X90261529Y-66756590D01*
X90263156Y-66690000D01*
X90244852Y-66467361D01*
X90201307Y-66294000D01*
X93701496Y-66294000D01*
X93721458Y-66483928D01*
X93780473Y-66665556D01*
X93783776Y-66671278D01*
X93783777Y-66671279D01*
X93801934Y-66702727D01*
X93875960Y-66830944D01*
X93880378Y-66835851D01*
X93880379Y-66835852D01*
X93962452Y-66927003D01*
X94003747Y-66972866D01*
X94158248Y-67085118D01*
X94164276Y-67087802D01*
X94164278Y-67087803D01*
X94197120Y-67102425D01*
X94332712Y-67162794D01*
X94426112Y-67182647D01*
X94513056Y-67201128D01*
X94513061Y-67201128D01*
X94519513Y-67202500D01*
X94575406Y-67202500D01*
X94643527Y-67222502D01*
X94664501Y-67239405D01*
X95849595Y-68424500D01*
X95883621Y-68486812D01*
X95886500Y-68513595D01*
X95886500Y-74354476D01*
X95866498Y-74422597D01*
X95854142Y-74438779D01*
X95780960Y-74520056D01*
X95685473Y-74685444D01*
X95626458Y-74867072D01*
X95625768Y-74873633D01*
X95625768Y-74873635D01*
X95610776Y-75016277D01*
X95606496Y-75057000D01*
X95626458Y-75246928D01*
X95685473Y-75428556D01*
X95780960Y-75593944D01*
X95785378Y-75598851D01*
X95785379Y-75598852D01*
X95843649Y-75663567D01*
X95908747Y-75735866D01*
X96063248Y-75848118D01*
X96069276Y-75850802D01*
X96069278Y-75850803D01*
X96231681Y-75923109D01*
X96237712Y-75925794D01*
X96331112Y-75945647D01*
X96418056Y-75964128D01*
X96418061Y-75964128D01*
X96424513Y-75965500D01*
X96615487Y-75965500D01*
X96621939Y-75964128D01*
X96621944Y-75964128D01*
X96708888Y-75945647D01*
X96802288Y-75925794D01*
X96808319Y-75923109D01*
X96970722Y-75850803D01*
X96970724Y-75850802D01*
X96976752Y-75848118D01*
X97131253Y-75735866D01*
X97196351Y-75663567D01*
X97254621Y-75598852D01*
X97254622Y-75598851D01*
X97259040Y-75593944D01*
X97354527Y-75428556D01*
X97413542Y-75246928D01*
X97433504Y-75057000D01*
X97429224Y-75016277D01*
X97414232Y-74873635D01*
X97414232Y-74873633D01*
X97413542Y-74867072D01*
X97354527Y-74685444D01*
X97259040Y-74520056D01*
X97185863Y-74438785D01*
X97155147Y-74374779D01*
X97153500Y-74354476D01*
X97153500Y-68277767D01*
X97154027Y-68266584D01*
X97155702Y-68259091D01*
X97154082Y-68207530D01*
X97153562Y-68191001D01*
X97153500Y-68187043D01*
X97153500Y-68159144D01*
X97152996Y-68155153D01*
X97152063Y-68143311D01*
X97150923Y-68107036D01*
X97150674Y-68099111D01*
X97148462Y-68091497D01*
X97148461Y-68091492D01*
X97145023Y-68079659D01*
X97141012Y-68060295D01*
X97139467Y-68048064D01*
X97138474Y-68040203D01*
X97135557Y-68032836D01*
X97135556Y-68032831D01*
X97122198Y-67999092D01*
X97118354Y-67987865D01*
X97108230Y-67953022D01*
X97106018Y-67945407D01*
X97095707Y-67927972D01*
X97087012Y-67910224D01*
X97079552Y-67891383D01*
X97053564Y-67855613D01*
X97047048Y-67845693D01*
X97028580Y-67814465D01*
X97028578Y-67814462D01*
X97024542Y-67807638D01*
X97010221Y-67793317D01*
X96997380Y-67778283D01*
X96990131Y-67768306D01*
X96985472Y-67761893D01*
X96951395Y-67733702D01*
X96942616Y-67725712D01*
X96359499Y-67142595D01*
X96325473Y-67080283D01*
X96330538Y-67009468D01*
X96373085Y-66952632D01*
X96439605Y-66927821D01*
X96448594Y-66927500D01*
X98605800Y-66927500D01*
X98673921Y-66947502D01*
X98693147Y-66963843D01*
X98693420Y-66963540D01*
X98698332Y-66967963D01*
X98702747Y-66972866D01*
X98857248Y-67085118D01*
X98863276Y-67087802D01*
X98863278Y-67087803D01*
X98896120Y-67102425D01*
X99031712Y-67162794D01*
X99125112Y-67182647D01*
X99212056Y-67201128D01*
X99212061Y-67201128D01*
X99218513Y-67202500D01*
X99409487Y-67202500D01*
X99415939Y-67201128D01*
X99415944Y-67201128D01*
X99502888Y-67182647D01*
X99596288Y-67162794D01*
X99731880Y-67102425D01*
X99764722Y-67087803D01*
X99764724Y-67087802D01*
X99770752Y-67085118D01*
X99925253Y-66972866D01*
X99929668Y-66967963D01*
X99934580Y-66963540D01*
X99935705Y-66964789D01*
X99989014Y-66931949D01*
X100022200Y-66927500D01*
X101917233Y-66927500D01*
X101928416Y-66928027D01*
X101935909Y-66929702D01*
X101943835Y-66929453D01*
X101943836Y-66929453D01*
X102003986Y-66927562D01*
X102007945Y-66927500D01*
X102035856Y-66927500D01*
X102039791Y-66927003D01*
X102039856Y-66926995D01*
X102051693Y-66926062D01*
X102083951Y-66925048D01*
X102087970Y-66924922D01*
X102095889Y-66924673D01*
X102115343Y-66919021D01*
X102134700Y-66915013D01*
X102146930Y-66913468D01*
X102146931Y-66913468D01*
X102154797Y-66912474D01*
X102162168Y-66909555D01*
X102162170Y-66909555D01*
X102195912Y-66896196D01*
X102207142Y-66892351D01*
X102241983Y-66882229D01*
X102241984Y-66882229D01*
X102249593Y-66880018D01*
X102256412Y-66875985D01*
X102256417Y-66875983D01*
X102267028Y-66869707D01*
X102284776Y-66861012D01*
X102303617Y-66853552D01*
X102339387Y-66827564D01*
X102349307Y-66821048D01*
X102380535Y-66802580D01*
X102380538Y-66802578D01*
X102387362Y-66798542D01*
X102401683Y-66784221D01*
X102416717Y-66771380D01*
X102426694Y-66764131D01*
X102433107Y-66759472D01*
X102461298Y-66725395D01*
X102469288Y-66716616D01*
X102565019Y-66620885D01*
X102627331Y-66586859D01*
X102698146Y-66591924D01*
X102754982Y-66634471D01*
X102779905Y-66702727D01*
X102786727Y-66821048D01*
X102790110Y-66879715D01*
X102791247Y-66884761D01*
X102791248Y-66884767D01*
X102809996Y-66967955D01*
X102839222Y-67097639D01*
X102923266Y-67304616D01*
X103039987Y-67495088D01*
X103186250Y-67663938D01*
X103358126Y-67806632D01*
X103371531Y-67814465D01*
X103431445Y-67849476D01*
X103480169Y-67901114D01*
X103493240Y-67970897D01*
X103466509Y-68036669D01*
X103426055Y-68070027D01*
X103413607Y-68076507D01*
X103409474Y-68079610D01*
X103409471Y-68079612D01*
X103261115Y-68191001D01*
X103234965Y-68210635D01*
X103080629Y-68372138D01*
X102954743Y-68556680D01*
X102860688Y-68759305D01*
X102800989Y-68974570D01*
X102777251Y-69196695D01*
X102777548Y-69201848D01*
X102777548Y-69201851D01*
X102783011Y-69296590D01*
X102790110Y-69419715D01*
X102791247Y-69424761D01*
X102791248Y-69424767D01*
X102811119Y-69512939D01*
X102839222Y-69637639D01*
X102923266Y-69844616D01*
X103039987Y-70035088D01*
X103186250Y-70203938D01*
X103358126Y-70346632D01*
X103428595Y-70387811D01*
X103431445Y-70389476D01*
X103480169Y-70441114D01*
X103493240Y-70510897D01*
X103466509Y-70576669D01*
X103426055Y-70610027D01*
X103413607Y-70616507D01*
X103409474Y-70619610D01*
X103409471Y-70619612D01*
X103385247Y-70637800D01*
X103234965Y-70750635D01*
X103080629Y-70912138D01*
X102954743Y-71096680D01*
X102860688Y-71299305D01*
X102800989Y-71514570D01*
X102777251Y-71736695D01*
X102777548Y-71741848D01*
X102777548Y-71741851D01*
X102783011Y-71836590D01*
X102790110Y-71959715D01*
X102791247Y-71964761D01*
X102791248Y-71964767D01*
X102811119Y-72052939D01*
X102839222Y-72177639D01*
X102923266Y-72384616D01*
X103039987Y-72575088D01*
X103186250Y-72743938D01*
X103358126Y-72886632D01*
X103428595Y-72927811D01*
X103431445Y-72929476D01*
X103480169Y-72981114D01*
X103493240Y-73050897D01*
X103466509Y-73116669D01*
X103426055Y-73150027D01*
X103413607Y-73156507D01*
X103409474Y-73159610D01*
X103409471Y-73159612D01*
X103385247Y-73177800D01*
X103234965Y-73290635D01*
X103080629Y-73452138D01*
X102954743Y-73636680D01*
X102860688Y-73839305D01*
X102800989Y-74054570D01*
X102777251Y-74276695D01*
X102777548Y-74281848D01*
X102777548Y-74281851D01*
X102782906Y-74374779D01*
X102790110Y-74499715D01*
X102791247Y-74504761D01*
X102791248Y-74504767D01*
X102811119Y-74592939D01*
X102839222Y-74717639D01*
X102923266Y-74924616D01*
X103039987Y-75115088D01*
X103186250Y-75283938D01*
X103358126Y-75426632D01*
X103551000Y-75539338D01*
X103759692Y-75619030D01*
X103764760Y-75620061D01*
X103764763Y-75620062D01*
X103872017Y-75641883D01*
X103978597Y-75663567D01*
X103983772Y-75663757D01*
X103983774Y-75663757D01*
X104196673Y-75671564D01*
X104196677Y-75671564D01*
X104201837Y-75671753D01*
X104206957Y-75671097D01*
X104206959Y-75671097D01*
X104418288Y-75644025D01*
X104418289Y-75644025D01*
X104423416Y-75643368D01*
X104428366Y-75641883D01*
X104632429Y-75580661D01*
X104632434Y-75580659D01*
X104637384Y-75579174D01*
X104837994Y-75480896D01*
X105019860Y-75351173D01*
X105178096Y-75193489D01*
X105237594Y-75110689D01*
X105305435Y-75016277D01*
X105308453Y-75012077D01*
X105380119Y-74867072D01*
X105405136Y-74816453D01*
X105405137Y-74816451D01*
X105407430Y-74811811D01*
X105472370Y-74598069D01*
X105501529Y-74376590D01*
X105503156Y-74310000D01*
X105484852Y-74087361D01*
X105430431Y-73870702D01*
X105341354Y-73665840D01*
X105220014Y-73478277D01*
X105069670Y-73313051D01*
X105065619Y-73309852D01*
X105065615Y-73309848D01*
X104898414Y-73177800D01*
X104898410Y-73177798D01*
X104894359Y-73174598D01*
X104853053Y-73151796D01*
X104803084Y-73101364D01*
X104788312Y-73031921D01*
X104813428Y-72965516D01*
X104840780Y-72938909D01*
X104884603Y-72907650D01*
X105019860Y-72811173D01*
X105178096Y-72653489D01*
X105237594Y-72570689D01*
X105305435Y-72476277D01*
X105308453Y-72472077D01*
X105407430Y-72271811D01*
X105472370Y-72058069D01*
X105501529Y-71836590D01*
X105503156Y-71770000D01*
X105484852Y-71547361D01*
X105430431Y-71330702D01*
X105341354Y-71125840D01*
X105220014Y-70938277D01*
X105069670Y-70773051D01*
X105065619Y-70769852D01*
X105065615Y-70769848D01*
X104898414Y-70637800D01*
X104898410Y-70637798D01*
X104894359Y-70634598D01*
X104853053Y-70611796D01*
X104803084Y-70561364D01*
X104788312Y-70491921D01*
X104813428Y-70425516D01*
X104840780Y-70398909D01*
X104884603Y-70367650D01*
X105019860Y-70271173D01*
X105178096Y-70113489D01*
X105237594Y-70030689D01*
X105305435Y-69936277D01*
X105308453Y-69932077D01*
X105407430Y-69731811D01*
X105472370Y-69518069D01*
X105501529Y-69296590D01*
X105503156Y-69230000D01*
X105484852Y-69007361D01*
X105430431Y-68790702D01*
X105341354Y-68585840D01*
X105277290Y-68486812D01*
X105222822Y-68402617D01*
X105222820Y-68402614D01*
X105220014Y-68398277D01*
X105069670Y-68233051D01*
X105065619Y-68229852D01*
X105065615Y-68229848D01*
X104898414Y-68097800D01*
X104898410Y-68097798D01*
X104894359Y-68094598D01*
X104853053Y-68071796D01*
X104803084Y-68021364D01*
X104788312Y-67951921D01*
X104813428Y-67885516D01*
X104840780Y-67858909D01*
X104903088Y-67814465D01*
X105019860Y-67731173D01*
X105178096Y-67573489D01*
X105237594Y-67490689D01*
X105305435Y-67396277D01*
X105308453Y-67392077D01*
X105407430Y-67191811D01*
X105472370Y-66978069D01*
X105501529Y-66756590D01*
X105503156Y-66690000D01*
X105484852Y-66467361D01*
X105430431Y-66250702D01*
X105341354Y-66045840D01*
X105301906Y-65984862D01*
X105222822Y-65862617D01*
X105222820Y-65862614D01*
X105220014Y-65858277D01*
X105069670Y-65693051D01*
X105065619Y-65689852D01*
X105065615Y-65689848D01*
X104898414Y-65557800D01*
X104898410Y-65557798D01*
X104894359Y-65554598D01*
X104853053Y-65531796D01*
X104803084Y-65481364D01*
X104788312Y-65411921D01*
X104813428Y-65345516D01*
X104840780Y-65318909D01*
X104884603Y-65287650D01*
X105019860Y-65191173D01*
X105178096Y-65033489D01*
X105237594Y-64950689D01*
X105305435Y-64856277D01*
X105308453Y-64852077D01*
X105407430Y-64651811D01*
X105472370Y-64438069D01*
X105501529Y-64216590D01*
X105503156Y-64150000D01*
X105484852Y-63927361D01*
X105430431Y-63710702D01*
X105341354Y-63505840D01*
X105220014Y-63318277D01*
X105069670Y-63153051D01*
X105065619Y-63149852D01*
X105065615Y-63149848D01*
X104898414Y-63017800D01*
X104898410Y-63017798D01*
X104894359Y-63014598D01*
X104852569Y-62991529D01*
X104802598Y-62941097D01*
X104787826Y-62871654D01*
X104812942Y-62805248D01*
X104840294Y-62778641D01*
X105015328Y-62653792D01*
X105023200Y-62647139D01*
X105174052Y-62496812D01*
X105180730Y-62488965D01*
X105305003Y-62316020D01*
X105310313Y-62307183D01*
X105404670Y-62116267D01*
X105408469Y-62106672D01*
X105470377Y-61902910D01*
X105472555Y-61892837D01*
X105473986Y-61881962D01*
X105471775Y-61867778D01*
X105458617Y-61864000D01*
X102823225Y-61864000D01*
X102809694Y-61867973D01*
X102808257Y-61877966D01*
X102838565Y-62012446D01*
X102841645Y-62022275D01*
X102921770Y-62219603D01*
X102926413Y-62228794D01*
X103037694Y-62410388D01*
X103043777Y-62418699D01*
X103183213Y-62579667D01*
X103190580Y-62586883D01*
X103354434Y-62722916D01*
X103362881Y-62728831D01*
X103431969Y-62769203D01*
X103480693Y-62820842D01*
X103493764Y-62890625D01*
X103467033Y-62956396D01*
X103426584Y-62989752D01*
X103413607Y-62996507D01*
X103409474Y-62999610D01*
X103409471Y-62999612D01*
X103385247Y-63017800D01*
X103234965Y-63130635D01*
X103080629Y-63292138D01*
X102954743Y-63476680D01*
X102860688Y-63679305D01*
X102800989Y-63894570D01*
X102777251Y-64116695D01*
X102777548Y-64121848D01*
X102777548Y-64121851D01*
X102783011Y-64216590D01*
X102790110Y-64339715D01*
X102791247Y-64344761D01*
X102791248Y-64344767D01*
X102823453Y-64487668D01*
X102818917Y-64558520D01*
X102789631Y-64604464D01*
X101770500Y-65623595D01*
X101708188Y-65657621D01*
X101681405Y-65660500D01*
X100022200Y-65660500D01*
X99954079Y-65640498D01*
X99934853Y-65624157D01*
X99934580Y-65624460D01*
X99929668Y-65620037D01*
X99925253Y-65615134D01*
X99817033Y-65536507D01*
X99776094Y-65506763D01*
X99776093Y-65506762D01*
X99770752Y-65502882D01*
X99764724Y-65500198D01*
X99764722Y-65500197D01*
X99602319Y-65427891D01*
X99602318Y-65427891D01*
X99596288Y-65425206D01*
X99502888Y-65405353D01*
X99415944Y-65386872D01*
X99415939Y-65386872D01*
X99409487Y-65385500D01*
X99218513Y-65385500D01*
X99212061Y-65386872D01*
X99212056Y-65386872D01*
X99125112Y-65405353D01*
X99031712Y-65425206D01*
X99025682Y-65427891D01*
X99025681Y-65427891D01*
X98863278Y-65500197D01*
X98863276Y-65500198D01*
X98857248Y-65502882D01*
X98851907Y-65506762D01*
X98851906Y-65506763D01*
X98810967Y-65536507D01*
X98702747Y-65615134D01*
X98698332Y-65620037D01*
X98693420Y-65624460D01*
X98692295Y-65623211D01*
X98638986Y-65656051D01*
X98605800Y-65660500D01*
X95323200Y-65660500D01*
X95255079Y-65640498D01*
X95235853Y-65624157D01*
X95235580Y-65624460D01*
X95230668Y-65620037D01*
X95226253Y-65615134D01*
X95118033Y-65536507D01*
X95077094Y-65506763D01*
X95077093Y-65506762D01*
X95071752Y-65502882D01*
X95065724Y-65500198D01*
X95065722Y-65500197D01*
X94903319Y-65427891D01*
X94903318Y-65427891D01*
X94897288Y-65425206D01*
X94803888Y-65405353D01*
X94716944Y-65386872D01*
X94716939Y-65386872D01*
X94710487Y-65385500D01*
X94519513Y-65385500D01*
X94513061Y-65386872D01*
X94513056Y-65386872D01*
X94426112Y-65405353D01*
X94332712Y-65425206D01*
X94326682Y-65427891D01*
X94326681Y-65427891D01*
X94164278Y-65500197D01*
X94164276Y-65500198D01*
X94158248Y-65502882D01*
X94152907Y-65506762D01*
X94152906Y-65506763D01*
X94111967Y-65536507D01*
X94003747Y-65615134D01*
X93999326Y-65620044D01*
X93999325Y-65620045D01*
X93965492Y-65657621D01*
X93875960Y-65757056D01*
X93780473Y-65922444D01*
X93721458Y-66104072D01*
X93701496Y-66294000D01*
X90201307Y-66294000D01*
X90190431Y-66250702D01*
X90101354Y-66045840D01*
X90061906Y-65984862D01*
X89982822Y-65862617D01*
X89982820Y-65862614D01*
X89980014Y-65858277D01*
X89829670Y-65693051D01*
X89825619Y-65689852D01*
X89825615Y-65689848D01*
X89658414Y-65557800D01*
X89658410Y-65557798D01*
X89654359Y-65554598D01*
X89613053Y-65531796D01*
X89563084Y-65481364D01*
X89548312Y-65411921D01*
X89573428Y-65345516D01*
X89600780Y-65318909D01*
X89644603Y-65287650D01*
X89779860Y-65191173D01*
X89938096Y-65033489D01*
X89997594Y-64950689D01*
X90065435Y-64856277D01*
X90068453Y-64852077D01*
X90167430Y-64651811D01*
X90232370Y-64438069D01*
X90261529Y-64216590D01*
X90263156Y-64150000D01*
X90244852Y-63927361D01*
X90190431Y-63710702D01*
X90101354Y-63505840D01*
X89980014Y-63318277D01*
X89829670Y-63153051D01*
X89825619Y-63149852D01*
X89825615Y-63149848D01*
X89658414Y-63017800D01*
X89658410Y-63017798D01*
X89654359Y-63014598D01*
X89613053Y-62991796D01*
X89563084Y-62941364D01*
X89548312Y-62871921D01*
X89573428Y-62805516D01*
X89600780Y-62778909D01*
X89644603Y-62747650D01*
X89779860Y-62651173D01*
X89938096Y-62493489D01*
X89997594Y-62410689D01*
X90065435Y-62316277D01*
X90068453Y-62312077D01*
X90167430Y-62111811D01*
X90232370Y-61898069D01*
X90261529Y-61676590D01*
X90263156Y-61610000D01*
X90244852Y-61387361D01*
X90190431Y-61170702D01*
X90101354Y-60965840D01*
X89980014Y-60778277D01*
X89960405Y-60756727D01*
X89832798Y-60616488D01*
X89801746Y-60552642D01*
X89810141Y-60482143D01*
X89855317Y-60427375D01*
X89881761Y-60413706D01*
X89988297Y-60373767D01*
X89996705Y-60370615D01*
X90113261Y-60283261D01*
X90200615Y-60166705D01*
X90251745Y-60030316D01*
X90258500Y-59968134D01*
X102781500Y-59968134D01*
X102788255Y-60030316D01*
X102839385Y-60166705D01*
X102926739Y-60283261D01*
X103043295Y-60370615D01*
X103051704Y-60373767D01*
X103051705Y-60373768D01*
X103160960Y-60414726D01*
X103217725Y-60457367D01*
X103242425Y-60523929D01*
X103227218Y-60593278D01*
X103207825Y-60619759D01*
X103084590Y-60748717D01*
X103078104Y-60756727D01*
X102958098Y-60932649D01*
X102953000Y-60941623D01*
X102863338Y-61134783D01*
X102859775Y-61144470D01*
X102804389Y-61344183D01*
X102805912Y-61352607D01*
X102818292Y-61356000D01*
X105458344Y-61356000D01*
X105471875Y-61352027D01*
X105473180Y-61342947D01*
X105431214Y-61175875D01*
X105427894Y-61166124D01*
X105342972Y-60970814D01*
X105338105Y-60961739D01*
X105222426Y-60782926D01*
X105216136Y-60774757D01*
X105072293Y-60616677D01*
X105041241Y-60552831D01*
X105049635Y-60482333D01*
X105094812Y-60427564D01*
X105121256Y-60413895D01*
X105228297Y-60373767D01*
X105236705Y-60370615D01*
X105353261Y-60283261D01*
X105440615Y-60166705D01*
X105491745Y-60030316D01*
X105498500Y-59968134D01*
X105498500Y-58171866D01*
X105491745Y-58109684D01*
X105440615Y-57973295D01*
X105353261Y-57856739D01*
X105236705Y-57769385D01*
X105100316Y-57718255D01*
X105038134Y-57711500D01*
X103241866Y-57711500D01*
X103179684Y-57718255D01*
X103043295Y-57769385D01*
X102926739Y-57856739D01*
X102839385Y-57973295D01*
X102788255Y-58109684D01*
X102781500Y-58171866D01*
X102781500Y-59968134D01*
X90258500Y-59968134D01*
X90258500Y-58171866D01*
X90251745Y-58109684D01*
X90200615Y-57973295D01*
X90113261Y-57856739D01*
X89996705Y-57769385D01*
X89860316Y-57718255D01*
X89798134Y-57711500D01*
X88001866Y-57711500D01*
X87939684Y-57718255D01*
X87803295Y-57769385D01*
X87686739Y-57856739D01*
X87599385Y-57973295D01*
X87548255Y-58109684D01*
X87541500Y-58171866D01*
X87541500Y-59968134D01*
X87548255Y-60030316D01*
X87599385Y-60166705D01*
X87686739Y-60283261D01*
X87803295Y-60370615D01*
X87811704Y-60373767D01*
X87811705Y-60373768D01*
X87920451Y-60414535D01*
X87977216Y-60457176D01*
X88001916Y-60523738D01*
X87986709Y-60593087D01*
X87967316Y-60619568D01*
X87840629Y-60752138D01*
X87837715Y-60756410D01*
X87837714Y-60756411D01*
X87825409Y-60774450D01*
X87714743Y-60936680D01*
X87620688Y-61139305D01*
X87560989Y-61354570D01*
X87537251Y-61576695D01*
X87537548Y-61581848D01*
X87537548Y-61581851D01*
X87543011Y-61676590D01*
X87550110Y-61799715D01*
X87551247Y-61804761D01*
X87551248Y-61804767D01*
X87564597Y-61864000D01*
X87599222Y-62017639D01*
X87683266Y-62224616D01*
X87799987Y-62415088D01*
X87946250Y-62583938D01*
X88118126Y-62726632D01*
X88188595Y-62767811D01*
X88191445Y-62769476D01*
X88240169Y-62821114D01*
X88253240Y-62890897D01*
X88226509Y-62956669D01*
X88186055Y-62990027D01*
X88173607Y-62996507D01*
X88169474Y-62999610D01*
X88169471Y-62999612D01*
X88145247Y-63017800D01*
X87994965Y-63130635D01*
X87840629Y-63292138D01*
X87714743Y-63476680D01*
X87620688Y-63679305D01*
X87560989Y-63894570D01*
X87537251Y-64116695D01*
X87537548Y-64121848D01*
X87537548Y-64121851D01*
X87543011Y-64216590D01*
X87550110Y-64339715D01*
X87551247Y-64344761D01*
X87551248Y-64344767D01*
X87571119Y-64432939D01*
X87599222Y-64557639D01*
X87683266Y-64764616D01*
X87799987Y-64955088D01*
X87946250Y-65123938D01*
X88118126Y-65266632D01*
X88188595Y-65307811D01*
X88191445Y-65309476D01*
X88240169Y-65361114D01*
X88253240Y-65430897D01*
X88226509Y-65496669D01*
X88186055Y-65530027D01*
X88173607Y-65536507D01*
X88169474Y-65539610D01*
X88169471Y-65539612D01*
X87999100Y-65667530D01*
X87994965Y-65670635D01*
X87840629Y-65832138D01*
X87714743Y-66016680D01*
X87620688Y-66219305D01*
X87560989Y-66434570D01*
X87537251Y-66656695D01*
X87537548Y-66661848D01*
X87537548Y-66661851D01*
X87546727Y-66821048D01*
X87550110Y-66879715D01*
X87551247Y-66884761D01*
X87551248Y-66884767D01*
X87569996Y-66967955D01*
X87599222Y-67097639D01*
X87683266Y-67304616D01*
X87799987Y-67495088D01*
X87946250Y-67663938D01*
X88118126Y-67806632D01*
X88131531Y-67814465D01*
X88191445Y-67849476D01*
X88240169Y-67901114D01*
X88253240Y-67970897D01*
X88226509Y-68036669D01*
X88186055Y-68070027D01*
X88173607Y-68076507D01*
X88169474Y-68079610D01*
X88169471Y-68079612D01*
X88021115Y-68191001D01*
X87994965Y-68210635D01*
X87840629Y-68372138D01*
X87714743Y-68556680D01*
X87620688Y-68759305D01*
X87560989Y-68974570D01*
X87537251Y-69196695D01*
X87537548Y-69201848D01*
X87537548Y-69201851D01*
X87543011Y-69296590D01*
X87550110Y-69419715D01*
X87551247Y-69424761D01*
X87551248Y-69424767D01*
X87571119Y-69512939D01*
X87599222Y-69637639D01*
X87683266Y-69844616D01*
X87799987Y-70035088D01*
X87946250Y-70203938D01*
X88118126Y-70346632D01*
X88188595Y-70387811D01*
X88191445Y-70389476D01*
X88240169Y-70441114D01*
X88253240Y-70510897D01*
X88226509Y-70576669D01*
X88186055Y-70610027D01*
X88173607Y-70616507D01*
X88169474Y-70619610D01*
X88169471Y-70619612D01*
X88145247Y-70637800D01*
X87994965Y-70750635D01*
X87840629Y-70912138D01*
X87714743Y-71096680D01*
X87620688Y-71299305D01*
X87560989Y-71514570D01*
X87537251Y-71736695D01*
X87537548Y-71741848D01*
X87537548Y-71741851D01*
X87543011Y-71836590D01*
X87550110Y-71959715D01*
X87551247Y-71964761D01*
X87551248Y-71964767D01*
X87571119Y-72052939D01*
X87599222Y-72177639D01*
X87683266Y-72384616D01*
X87799987Y-72575088D01*
X87946250Y-72743938D01*
X88118126Y-72886632D01*
X88188595Y-72927811D01*
X88191445Y-72929476D01*
X88240169Y-72981114D01*
X88253240Y-73050897D01*
X88226509Y-73116669D01*
X88186055Y-73150027D01*
X88173607Y-73156507D01*
X88169474Y-73159610D01*
X88169471Y-73159612D01*
X88145247Y-73177800D01*
X87994965Y-73290635D01*
X87840629Y-73452138D01*
X87714743Y-73636680D01*
X87620688Y-73839305D01*
X87560989Y-74054570D01*
X87537251Y-74276695D01*
X86614500Y-74276695D01*
X86614500Y-56895500D01*
X86634502Y-56827379D01*
X86688158Y-56780886D01*
X86740500Y-56769500D01*
X106299500Y-56769500D01*
X106367621Y-56789502D01*
G37*
%TD.AperFunction*%
%TD*%
M02*
